<svg xmlns="http://www.w3.org/2000/svg" xmlns:xlink="http://www.w3.org/1999/xlink" width="48.093" height="48.052"><rect width="24.574132492113566" height="29.747634069400632" x="11.6403785488959" y="9.053627760252366" fill="#fff"/><path fill="#fc3f1d" d="M24.07-0.12C10.78-0.12 0 10.62 0 23.82C0 37.06 10.78 47.77 24.07 47.77C37.31 47.77 48.09 37.06 48.09 23.82C48.09 10.62 37.31-0.12 24.07-0.12ZM27.18 38.05L27.18 13.41L24.97 13.41C20.91 13.41 18.78 15.46 18.78 18.49C18.78 21.94 20.25 23.53 23.29 25.58L25.79 27.27L18.57 38.05L13.20 38.05L19.68 28.41C15.95 25.75 13.86 23.16 13.86 18.78C13.86 13.28 17.67 9.55 24.93 9.55L32.14 9.55L32.14 38.05Z"/><path fill="#000" d=""/></svg>