<svg xmlns="http://www.w3.org/2000/svg" width="25.4" height="33.268" viewBox="0 0 25.4 33.268">
  <g id="YandexPoint" transform="translate(0.554 0.554)">
    <g id="Pin">
      <path id="Контур_2" data-name="Контур 2" d="M24.15,12.45c0,9.79-11.7,19.28-11.7,19.28S.75,22.24.75,12.45a11.7,11.7,0,1,1,23.4,0" transform="translate(-0.304 -0.304)" fill="#fff"/>
      <path id="Контур_3" data-name="Контур 3" d="M24.15,12.45c0,9.79-11.7,19.28-11.7,19.28S.75,22.24.75,12.45a11.7,11.7,0,1,1,23.4,0Z" transform="translate(-0.304 -0.304)" fill="none" stroke="#161615" stroke-width="2"/>
      <path id="Контур_4" data-name="Контур 4" d="M14.231,5.316a9.069,9.069,0,1,0,9.1,9.067,9.1,9.1,0,0,0-9.1-9.067m1.178,14.457V10.44h-.837c-1.538,0-2.345.776-2.345,1.924,0,1.307.557,1.909,1.709,2.686l.947.64-2.734,4.083H10.114l2.454-3.651c-1.413-1.008-2.2-1.988-2.2-3.648,0-2.083,1.443-3.5,4.192-3.5h2.731V19.773Z" transform="translate(-2.076 -2.158)" fill="#fc3f1d"/>
      <rect id="Прямоугольник_3" data-name="Прямоугольник 3" width="24.291" height="32" fill="none"/>
    </g>
  </g>
</svg>
