<svg xmlns="http://www.w3.org/2000/svg" xmlns:xlink="http://www.w3.org/1999/xlink" width="212.58500000000004" height="48.052"><rect width="24.574132492113566" height="29.747634069400632" x="11.6403785488959" y="9.053627760252366" fill="#fff"/><path fill="#fc3f1d" d="M24.07-0.12C10.78-0.12 0 10.62 0 23.82C0 37.06 10.78 47.77 24.07 47.77C37.31 47.77 48.09 37.06 48.09 23.82C48.09 10.62 37.31-0.12 24.07-0.12ZM27.18 38.05L27.18 13.41L24.97 13.41C20.91 13.41 18.78 15.46 18.78 18.49C18.78 21.94 20.25 23.53 23.29 25.58L25.79 27.27L18.57 38.05L13.20 38.05L19.68 28.41C15.95 25.75 13.86 23.16 13.86 18.78C13.86 13.28 17.67 9.55 24.93 9.55L32.14 9.55L32.14 38.05Z"/><path fill="#000" d="M61.13 43.99L61.13 38.05L75.65 38.05L75.65 43.99L80.28 43.99L80.28 34.19L77.61 34.19L77.61 9.55L60.89 9.55L60.48 21.28C60.27 28.04 59.74 32.02 58.43 34.19L56.50 34.19L56.50 43.99ZM65.15 21.94L65.44 13.41L72.65 13.41L72.65 34.19L63.43 34.19C64.29 32.23 64.94 28.70 65.15 21.94ZM91.43 17.02C86.06 17.02 82.33 20.83 82.33 27.76C82.33 34.65 86.06 38.46 91.43 38.46C96.80 38.46 100.53 34.65 100.53 27.72C100.53 20.83 96.80 17.02 91.43 17.02ZM91.43 34.60C88.72 34.60 87.37 32.51 87.37 27.76C87.37 22.96 88.72 20.87 91.43 20.87C94.14 20.87 95.49 22.96 95.49 27.72C95.49 32.51 94.14 34.60 91.43 34.60ZM112.67 38.46C114.92 38.46 116.52 38.05 117.71 37.19L117.71 33.21C116.48 34.07 115.01 34.60 112.96 34.60C109.47 34.60 108.04 31.90 108.04 27.63C108.04 23.16 109.80 20.87 113.00 20.87C114.88 20.87 116.73 21.53 117.71 22.14L117.71 18.00C116.69 17.43 114.88 17.02 112.46 17.02C106.23 17.02 102.99 21.48 102.99 27.76C102.99 34.65 106.15 38.46 112.67 38.46ZM135.92 21.28L135.92 17.43L119.56 17.43L119.56 21.28L125.30 21.28L125.30 38.05L130.18 38.05L130.18 21.28ZM152.97 23.98C152.97 18.98 150.43 17.10 145.26 17.10C142.02 17.10 139.48 18.12 138.01 18.98L138.01 23.04C139.32 22.06 142.19 20.99 144.69 20.99C147.03 20.99 148.09 21.81 148.09 24.03L148.09 25.17L147.31 25.17C139.85 25.17 136.53 27.63 136.53 31.82C136.53 36.00 139.07 38.34 142.84 38.34C145.71 38.34 146.94 37.39 147.89 36.41L148.09 36.41C148.13 36.94 148.30 37.64 148.46 38.05L153.22 38.05C153.05 36.37 152.97 34.69 152.97 33.01ZM148.09 33.13C147.48 34.03 146.33 34.77 144.61 34.77C142.56 34.77 141.53 33.62 141.53 31.86C141.53 29.52 143.21 28.66 147.40 28.66L148.09 28.66ZM165.44 38.05C170.27 38.05 173.14 36.00 173.14 32.06C173.14 29.36 171.50 27.80 168.76 27.31C170.97 26.69 172.36 25.13 172.36 22.67C172.36 19.15 170.03 17.43 165.52 17.43L156.91 17.43L156.91 38.05ZM164.94 21.03C166.71 21.03 167.69 21.81 167.69 23.41C167.69 24.85 166.62 25.71 164.78 25.71L161.66 25.71L161.66 21.03ZM165.03 29.27C167.12 29.27 168.22 30.01 168.22 31.73C168.22 33.66 166.99 34.44 165.03 34.44L161.66 34.44L161.66 29.27ZM188.52 38.05L194.05 38.05L186.22 27.10L193.11 17.43L188.19 17.43L181.30 27.10L181.30 17.43L176.42 17.43L176.42 38.05L181.30 38.05L181.30 28.09ZM210.70 23.98C210.70 18.98 208.16 17.10 202.99 17.10C199.75 17.10 197.21 18.12 195.73 18.98L195.73 23.04C197.05 22.06 199.92 20.99 202.42 20.99C204.75 20.99 205.82 21.81 205.82 24.03L205.82 25.17L205.04 25.17C197.58 25.17 194.26 27.63 194.26 31.82C194.26 36.00 196.80 38.34 200.57 38.34C203.44 38.34 204.67 37.39 205.62 36.41L205.82 36.41C205.86 36.94 206.03 37.64 206.19 38.05L210.94 38.05C210.78 36.37 210.70 34.69 210.70 33.01ZM205.82 33.13C205.21 34.03 204.06 34.77 202.34 34.77C200.28 34.77 199.26 33.62 199.26 31.86C199.26 29.52 200.94 28.66 205.12 28.66L205.82 28.66Z"/></svg>